<svg width="49" height="48" viewBox="0 0 49 48" fill="none" xmlns="http://www.w3.org/2000/svg">
<g filter="url(#filter0_d_378_637)">
<path opacity="0.5" d="M44.4903 0.270225L34.7035 36.8334C34.6538 36.9993 34.4547 37.0491 34.3386 36.9329L27.7864 30.3771L32.6964 12.0541C32.7462 11.8881 32.5969 11.7387 32.431 11.7885L14.1181 16.7012L7.59917 10.1786C7.48306 10.0624 7.53282 9.86327 7.6987 9.81348L44.2249 0.00467392C44.3907 -0.02852 44.54 0.120853 44.4903 0.270225Z" fill="#00B37E"/>
<path opacity="0.5" d="M27.7861 30.3768L25.2648 39.8371C25.215 40.0031 25.016 40.0529 24.8998 39.9367L4.56328 19.6054C4.44717 19.4892 4.49693 19.2901 4.66281 19.2403L14.1178 16.7009L27.7861 30.3768Z" fill="#00B37E"/>
<path d="M32.6957 12.0537L27.7857 30.3768L14.1174 16.7009L32.4303 11.7882C32.5962 11.7384 32.7454 11.8878 32.6957 12.0537Z" fill="#00B37E"/>
</g>
<defs>
<filter id="filter0_d_378_637" x="0.5" y="0" width="48" height="48" filterUnits="userSpaceOnUse" color-interpolation-filters="sRGB">
<feFlood flood-opacity="0" result="BackgroundImageFix"/>
<feColorMatrix in="SourceAlpha" type="matrix" values="0 0 0 0 0 0 0 0 0 0 0 0 0 0 0 0 0 0 127 0" result="hardAlpha"/>
<feOffset dy="4"/>
<feGaussianBlur stdDeviation="2"/>
<feComposite in2="hardAlpha" operator="out"/>
<feColorMatrix type="matrix" values="0 0 0 0 0 0 0 0 0 0 0 0 0 0 0 0 0 0 0.25 0"/>
<feBlend mode="normal" in2="BackgroundImageFix" result="effect1_dropShadow_378_637"/>
<feBlend mode="normal" in="SourceGraphic" in2="effect1_dropShadow_378_637" result="shape"/>
</filter>
</defs>
</svg>
